<svg id="Layer_1" data-name="Layer 1" xmlns="http://www.w3.org/2000/svg" viewBox="0 0 788 444"><defs><style>.cls-1{fill:#e6e6e6;}.cls-2{fill:#505150;}</style></defs><rect class="cls-1" width="788" height="444"/><path class="cls-2" d="M471.06,291.85a76.9,76.9,0,0,0-5.66-26.77,74.14,74.14,0,0,0-16-24.08,72.82,72.82,0,0,0-24-15.89,81.12,81.12,0,0,0-30-5.81h0A76.84,76.84,0,0,0,357,229.45a73.91,73.91,0,0,0-27,27,78.62,78.62,0,0,0-7.58,18.2,71.65,71.65,0,0,0-2.63,17.16H314A80.76,80.76,0,0,1,317.73,270a83,83,0,0,1,10.83-22,78,78,0,0,1,16.89-17.62,85.25,85.25,0,0,1,22.33-12.11l6.56-2.42-6.16-3.32a56.23,56.23,0,0,1-21.92-21,60.7,60.7,0,0,1-6-14.1,57.26,57.26,0,0,1,2.32-37.66,59.43,59.43,0,0,1,12.29-18.31A56.25,56.25,0,0,1,373,109.15a58.25,58.25,0,0,1,22.41-4.48,56,56,0,0,1,22.25,4.47A59.21,59.21,0,0,1,436,121.43a56,56,0,0,1,12.25,18.16A58.42,58.42,0,0,1,452.72,162a57.22,57.22,0,0,1-2.06,15.29,56.33,56.33,0,0,1-6,14,60.79,60.79,0,0,1-9.43,11.94,56.76,56.76,0,0,1-12.45,9.22l-6.21,3.43,6.71,2.31a78,78,0,0,1,39.15,29.7,82.22,82.22,0,0,1,14.41,44ZM395.41,110.46a50.38,50.38,0,0,0-20.05,4,51.14,51.14,0,0,0-16.3,11.07,54.36,54.36,0,0,0-11,16.34A49.44,49.44,0,0,0,343.88,162,50.47,50.47,0,0,0,359,198.33a54.36,54.36,0,0,0,16.34,11,49.66,49.66,0,0,0,20.07,4.14,50.49,50.49,0,0,0,20-4,51.29,51.29,0,0,0,16.31-11.07,54.54,54.54,0,0,0,11-16.34A49.48,49.48,0,0,0,446.93,162a50.81,50.81,0,0,0-15.11-36.35,54.36,54.36,0,0,0-16.34-11A49.5,49.5,0,0,0,395.41,110.46Z"/><rect class="cls-2" x="474.58" y="307.01" width="68.67" height="5.15"/><polygon class="cls-2" points="520 280.52 523.64 284.16 508.9 298.89 494.18 284.16 497.81 280.52 506.32 289 506.32 220.33 511.5 220.33 511.5 289 520 280.52"/></svg>