<svg id="Layer_1" data-name="Layer 1" xmlns="http://www.w3.org/2000/svg" viewBox="0 0 788 444"><defs><style>.cls-1{fill:#e6e6e6;}.cls-2{fill:#505150;}</style></defs><title>FE-Safety_Content-Placement-0_Loot Box Principles_788x444</title><rect class="cls-1" width="788" height="444"/><path class="cls-2" d="M418.63,219.75a2.6,2.6,0,0,1-2.54-2.55,11.7,11.7,0,0,0-.93-4.65,11.83,11.83,0,0,0-6.32-6.32,11.7,11.7,0,0,0-4.65-.93,9.67,9.67,0,0,1-3.81-.76,9.84,9.84,0,0,1-3.11-2.09,10,10,0,0,1-2.09-3.1,9.71,9.71,0,0,1-.76-3.81V190l-.61-.29a49.59,49.59,0,0,1-13.64-9.55,48.26,48.26,0,0,1-9.6-13.58l-.79-1.66-1.06,1.5a48.32,48.32,0,0,1-19.15,16.07l-.62.28v5.59a11.75,11.75,0,0,0,.93,4.66,12.16,12.16,0,0,0,2.54,3.77,11.86,11.86,0,0,0,3.78,2.54,11.74,11.74,0,0,0,4.65.94h5.65a37.13,37.13,0,0,1,4.93.32,12.58,12.58,0,0,1,4.31,1.46,22.18,22.18,0,0,1,4.36,3.24,16.82,16.82,0,0,1,3.69,5.44,16.59,16.59,0,0,1,1.27,6.52,2.52,2.52,0,0,1-4.32,1.79,2.44,2.44,0,0,1-.76-1.79,11.7,11.7,0,0,0-.93-4.65,12.26,12.26,0,0,0-2.54-3.78,12,12,0,0,0-3.78-2.54,11.7,11.7,0,0,0-4.65-.93h-7.23a16.48,16.48,0,0,1-6.57-1.32,17.86,17.86,0,0,1-5.43-3.62,16.43,16.43,0,0,1-3.66-5.41,16.92,16.92,0,0,1-1.32-6.64v-5.58l-.62-.29a48.79,48.79,0,0,1-11.7-7.73,49.5,49.5,0,0,1-8.89-10.5,51.9,51.9,0,0,1-5.7-12.55,46.59,46.59,0,0,1-2-13.9,30.76,30.76,0,0,1,2.45-12.22,31.2,31.2,0,0,1,6.77-10,32.42,32.42,0,0,1,10-6.72,31.1,31.1,0,0,1,20.4-1.42,33,33,0,0,1,7.54,3.12,30.8,30.8,0,0,1,11.51,11.56l.68,1.21,1-1a30.38,30.38,0,0,1,9.92-6.49A31.93,31.93,0,0,1,397,113.55,30.79,30.79,0,0,1,409.19,116a31.34,31.34,0,0,1,10,6.76,32.58,32.58,0,0,1,6.72,10A31.34,31.34,0,0,1,428.4,145a48.57,48.57,0,0,1-2,13.85,51.35,51.35,0,0,1-5.64,12.54,47.88,47.88,0,0,1-8.94,10.55,50.27,50.27,0,0,1-11.71,7.73l-.61.29v.68q0,1.11-.06,2.55a17.7,17.7,0,0,0,.12,2.95,4.76,4.76,0,0,0,1.38,2.81,4.59,4.59,0,0,0,3.2,1.28,16.5,16.5,0,0,1,6.61,1.32,17.68,17.68,0,0,1,5.43,3.62,16.43,16.43,0,0,1,3.66,5.41,16.88,16.88,0,0,1,1.33,6.63,2.6,2.6,0,0,1-2.55,2.55ZM397,118.63a25.81,25.81,0,0,0-20.13,9.53l-.35.44.15.54a27.12,27.12,0,0,1,.87,4.23c.18,1.47.29,2.95.33,4.41a49.05,49.05,0,0,1-4.64,20.91l-.18.39.14.4a42.54,42.54,0,0,0,3.76,8.17,46.62,46.62,0,0,0,5.26,7.16,42.63,42.63,0,0,0,6.6,6,45.85,45.85,0,0,0,7.74,4.56l.44.21.45-.2a43.76,43.76,0,0,0,10.7-6.89,44.49,44.49,0,0,0,8.15-9.48,44,44,0,0,0,5.2-11.33A45.3,45.3,0,0,0,423.31,145a25.61,25.61,0,0,0-2.06-10.25A26.47,26.47,0,0,0,397,118.63Zm-50.56-7.22a25.59,25.59,0,0,0-10.24,2.06,26.5,26.5,0,0,0-16.11,24.27,44,44,0,0,0,7,24,43.5,43.5,0,0,0,8.15,9.43A47.32,47.32,0,0,0,346,178.11l.45.21.45-.21a43.43,43.43,0,0,0,10.7-6.88,44.88,44.88,0,0,0,13.36-20.81,45.72,45.72,0,0,0,1.85-12.65,25.7,25.7,0,0,0-2.07-10.26,26.48,26.48,0,0,0-24.27-16.1Zm65,36.11a2.41,2.41,0,0,1-1.78-.76,2.38,2.38,0,0,1-.76-1.78,11.7,11.7,0,0,0-.93-4.65,12,12,0,0,0-2.54-3.78,11.86,11.86,0,0,0-3.78-2.54,11.7,11.7,0,0,0-4.65-.93,2.52,2.52,0,0,1-1.79-4.33A2.4,2.4,0,0,1,397,128a16.65,16.65,0,0,1,6.57,1.32,18,18,0,0,1,5.43,3.62,16.53,16.53,0,0,1,3.66,5.41A16.92,16.92,0,0,1,414,145a2.58,2.58,0,0,1-2.54,2.54Zm-50.56-7.22a2.6,2.6,0,0,1-2.54-2.54,11.75,11.75,0,0,0-.93-4.66,12.1,12.1,0,0,0-2.54-3.77,11.86,11.86,0,0,0-3.78-2.54,11.71,11.71,0,0,0-4.65-.94,2.54,2.54,0,0,1,0-5.08,16.44,16.44,0,0,1,6.57,1.32,17.86,17.86,0,0,1,5.43,3.62,16.43,16.43,0,0,1,3.66,5.41,16.93,16.93,0,0,1,1.33,6.64,2.43,2.43,0,0,1-.76,1.78A2.4,2.4,0,0,1,360.85,140.3Z"/><path class="cls-2" d="M326,302.17V252.82l74.12-33.07,74.12,33.07v49.06l-74.12,37.06Zm5.26-3.23,68.87,34.12,68.85-34.43V261.09l-68.86,34.43L331.22,261.4Zm40.3-23.44,28.56,14.14,28.38-14.14-28.38-14.24ZM332,256l33.62,16.63,34.47-17.27,34.25,17.2,33.53-16.72-67.78-30.31Z"/></svg>