<?xml version="1.0" encoding="utf-8"?>
<!-- Generator: Adobe Illustrator 22.0.1, SVG Export Plug-In . SVG Version: 6.00 Build 0)  -->
<svg version="1.1" id="Layer_1" xmlns="http://www.w3.org/2000/svg" xmlns:xlink="http://www.w3.org/1999/xlink" x="0px" y="0px"
	 viewBox="0 0 225 120" style="enable-background:new 0 0 225 120;" xml:space="preserve">
<style type="text/css">
	.st0{fill:#FFFFFF;}
	.st1{fill:#0071CE;}
	.st2{fill:#FFB71B;}
</style>
<rect class="st0" width="225" height="120"/>
<g>
	<g>
		<g id="Artwork_2_1_">
			<g>
				<g>
					<path class="st1" d="M127.8,61.5c0-4.5-1.9-8.5-8.4-8.5c-3.3,0-6,0.9-7.5,1.8l1.1,3.6c1.3-0.8,3.4-1.5,5.4-1.5
						c3.3,0,3.9,1.9,3.9,3.1v0.3c-7.2,0-11.8,2.5-11.8,7.6c0,3.1,2.3,6,6.4,6c2.5,0,4.6-1,5.8-2.6h0.1c0,0,0.8,3.4,5.4,2.1
						c-0.2-1.4-0.3-3-0.3-4.8L127.8,61.5L127.8,61.5z M122.4,66.1c0,0.4,0,0.7-0.1,1.1c-0.4,1.4-1.8,2.5-3.6,2.5
						c-1.5,0-2.7-0.8-2.7-2.6c0-2.7,3-3.5,6.4-3.5C122.4,63.6,122.4,66.1,122.4,66.1z"/>
					<path class="st1" d="M15.5,46.8c0,0,4.7,19.3,5.5,22.4c0.9,3.7,2.5,5,7,4.1l2.9-12c0.7-3,1.2-5.1,1.7-8.1h0.1
						c0.3,3.1,0.8,5.2,1.4,8.1c0,0,1.2,5.4,1.8,8.3s2.3,4.7,6.8,3.7l7-26.5H44l-2.4,11.5c-0.6,3.3-1.2,5.9-1.7,9H40
						c-0.4-3-0.9-5.5-1.6-8.8l-2.5-11.7H30l-2.7,11.4c-0.8,3.5-1.5,6.3-1.9,9.2h-0.1c-0.5-2.8-1.1-6.3-1.7-9.6c0,0-1.6-8.2-2.1-11
						C21.5,46.7,15.5,46.7,15.5,46.8z"/>
					<path class="st1" d="M65.8,61.5c0-4.5-1.9-8.5-8.4-8.5c-3.3,0-6,0.9-7.5,1.8l1.1,3.6c1.3-0.8,3.4-1.5,5.4-1.5
						c3.3,0,3.9,1.9,3.9,3.1v0.3c-7.2,0-11.8,2.5-11.8,7.6c0,3.1,2.3,6,6.4,6c2.5,0,4.6-1,5.8-2.6h0.1c0,0,0.8,3.4,5.4,2.1
						c-0.2-1.4-0.3-3-0.3-4.8L65.8,61.5L65.8,61.5z M60.5,66.1c0,0.4,0,0.7-0.1,1.1c-0.4,1.4-1.8,2.5-3.6,2.5
						c-1.5,0-2.7-0.8-2.7-2.6c0-2.7,3-3.5,6.4-3.5C60.5,63.6,60.5,66.1,60.5,66.1z"/>
					<polygon class="st1" points="74.8,67.6 74.8,46.8 69.4,46.8 69.4,73.4 74.8,73.4 					"/>
					<path class="st1" d="M145.3,46.8v19.6c0,2.7,0.5,4.6,1.6,5.7c0.9,1,2.5,1.7,4.4,1.7c1.6,0,3.2-0.3,3.9-0.6l-0.1-4.2
						c-0.5,0.1-1.2,0.2-2,0.2c-1.8,0-2.5-1.2-2.5-3.6V58h4.7v-5h-4.7v-6.3L145.3,46.8L145.3,46.8z"/>
					<path class="st1" d="M131.4,53.3v19.9h5.6V63.1c0-0.6,0-1,0.1-1.5c0.4-2.1,2-3.5,4.4-3.5c0.6,0,1.1,0.1,1.6,0.1V53
						c-0.4-0.1-0.7-0.1-1.2-0.1c-2.1,0-4.4,1.3-5.4,4.2h-0.2v-3.8C136.3,53.4,131.4,53.4,131.4,53.3z"/>
					<path class="st1" d="M78.6,53.3v19.9H84V61.6c0-0.5,0.1-1.1,0.3-1.6c0.4-1.2,1.5-2.6,3.3-2.6c2.2,0,3.2,1.8,3.2,4.5v11.4h5.4
						V61.5c0-0.5,0.1-1.2,0.2-1.6c0.4-1.3,1.6-2.4,3.2-2.4c2.2,0,3.3,1.8,3.3,5v10.9h5.4V61.5c0-6.2-3.1-8.6-6.7-8.6
						c-1.6,0-2.8,0.4-3.9,1.1c-0.9,0.6-1.8,1.4-2.5,2.5h-0.1c-0.9-2.1-2.9-3.6-5.5-3.6c-3.4,0-4.9,1.7-5.8,3.2h-0.1v-2.7h-5.1
						C78.6,53.4,78.6,53.3,78.6,53.3z"/>
					<path class="st2" d="M184.4,52.5c1.1,0,2-0.6,2.1-1.3l1.1-12c0-1.2-1.4-2.2-3.1-2.2c-1.7,0-3.1,1-3.1,2.2l1.1,12
						C182.5,52,183.4,52.5,184.4,52.5L184.4,52.5z"/>
					<path class="st2" d="M178,56.3c0.5-0.9,0.5-2-0.1-2.4l-9.8-6.9c-1-0.6-2.6,0.1-3.4,1.6c-0.9,1.5-0.7,3.2,0.3,3.8l10.9,5.1
						C176.5,57.8,177.5,57.2,178,56.3L178,56.3z"/>
					<path class="st2" d="M190.9,56.3c0.5,0.9,1.5,1.4,2.1,1.2l10.9-5.1c1-0.6,1.2-2.3,0.3-3.8s-2.4-2.2-3.4-1.6l-9.8,7
						C190.4,54.3,190.4,55.3,190.9,56.3L190.9,56.3z"/>
					<path class="st2" d="M184.4,67.6c1.1,0,2,0.6,2.1,1.3l1.1,12c0,1.2-1.4,2.2-3.1,2.2c-1.7,0-3.1-1-3.1-2.2l1.1-12
						C182.5,68.1,183.4,67.6,184.4,67.6L184.4,67.6z"/>
					<path class="st2" d="M190.9,63.8c0.5-0.9,1.5-1.4,2.1-1.2l10.9,5.1c1,0.6,1.2,2.3,0.3,3.8s-2.4,2.2-3.4,1.6l-9.8-6.9
						C190.4,65.8,190.4,64.8,190.9,63.8L190.9,63.8z"/>
					<path class="st2" d="M178,63.8c0.5,0.9,0.5,2-0.1,2.4l-9.8,6.9c-1,0.6-2.6-0.1-3.4-1.6c-0.9-1.5-0.7-3.2,0.3-3.8l10.9-5.1
						C176.5,62.3,177.5,62.8,178,63.8L178,63.8z"/>
					<path class="st2" d="M207.8,70.6c1,0,1.7,0.8,1.7,1.7c0,1-0.8,1.7-1.7,1.7c-1,0-1.7-0.8-1.7-1.7
						C206,71.4,206.8,70.6,207.8,70.6L207.8,70.6z M207.8,70.9c-0.8,0-1.4,0.6-1.4,1.4s0.6,1.4,1.4,1.4c0.8,0,1.3-0.6,1.3-1.4
						S208.5,70.9,207.8,70.9L207.8,70.9z M207.5,73.4h-0.3v-1.8c0.2,0,0.4-0.1,0.6-0.1c0.3,0,0.4,0.1,0.6,0.1
						c0.1,0.1,0.2,0.2,0.2,0.4s-0.2,0.4-0.4,0.4l0,0c0.2,0.1,0.2,0.2,0.3,0.4c0.1,0.3,0.1,0.4,0.1,0.4h-0.3
						c-0.1-0.1-0.1-0.2-0.1-0.5c0-0.2-0.2-0.3-0.4-0.3h-0.2v1H207.5z M207.5,72.4h0.2c0.2,0,0.5-0.1,0.5-0.3s-0.1-0.3-0.4-0.3
						c-0.1,0-0.2,0-0.3,0V72.4z"/>
				</g>
			</g>
		</g>
	</g>
</g>
</svg>
