<?xml version="1.0" encoding="utf-8"?>
<!-- Generator: Adobe Illustrator 22.0.1, SVG Export Plug-In . SVG Version: 6.00 Build 0)  -->
<svg version="1.1" id="Layer_1" xmlns="http://www.w3.org/2000/svg" xmlns:xlink="http://www.w3.org/1999/xlink" x="0px" y="0px"
	 viewBox="0 0 225 120" style="enable-background:new 0 0 225 120;" xml:space="preserve">
<style type="text/css">
	.st0{fill:#FFFFFF;}
	.st1{clip-path:url(#SVGID_2_);}
	.st2{clip-path:url(#SVGID_12_);}
	.st3{clip-path:url(#SVGID_13_);}
	.st4{clip-path:url(#SVGID_14_);}
	.st5{clip-path:url(#SVGID_15_);}
	.st6{clip-path:url(#SVGID_16_);}
	.st7{clip-path:url(#SVGID_17_);}
	.st8{clip-path:url(#SVGID_18_);}
	.st9{clip-path:url(#SVGID_19_);}
	.st10{clip-path:url(#SVGID_20_);}
	.st11{clip-path:url(#SVGID_20_);fill:#EE3425;}
</style>
<rect class="st0" width="225" height="120"/>
<g id="Artwork_8_1_">
	<defs>
		<rect id="SVGID_1_" x="17" y="37" width="190.9" height="58"/>
	</defs>
	<clipPath id="SVGID_2_">
		<use xlink:href="#SVGID_1_"  style="overflow:visible;"/>
	</clipPath>
	<g class="st1">
		<defs>
			<rect id="SVGID_3_" x="17" y="37" width="190.9" height="58"/>
		</defs>
		<defs>
			<rect id="SVGID_4_" x="17" y="37" width="190.9" height="58"/>
		</defs>
		<defs>
			<rect id="SVGID_5_" x="17" y="37" width="190.9" height="58"/>
		</defs>
		<defs>
			<rect id="SVGID_6_" x="17" y="37" width="190.9" height="58"/>
		</defs>
		<defs>
			<rect id="SVGID_7_" x="17" y="37" width="190.9" height="58"/>
		</defs>
		<defs>
			<rect id="SVGID_8_" x="17" y="37" width="190.9" height="58"/>
		</defs>
		<defs>
			<rect id="SVGID_9_" x="17" y="37" width="190.9" height="58"/>
		</defs>
		<defs>
			<rect id="SVGID_10_" x="17" y="37" width="190.9" height="58"/>
		</defs>
		<defs>
			<rect id="SVGID_11_" x="17" y="37" width="190.9" height="58"/>
		</defs>
		<clipPath id="SVGID_12_">
			<use xlink:href="#SVGID_3_"  style="overflow:visible;"/>
		</clipPath>
		<clipPath id="SVGID_13_" class="st2">
			<use xlink:href="#SVGID_4_"  style="overflow:visible;"/>
		</clipPath>
		<clipPath id="SVGID_14_" class="st3">
			<use xlink:href="#SVGID_5_"  style="overflow:visible;"/>
		</clipPath>
		<clipPath id="SVGID_15_" class="st4">
			<use xlink:href="#SVGID_6_"  style="overflow:visible;"/>
		</clipPath>
		<clipPath id="SVGID_16_" class="st5">
			<use xlink:href="#SVGID_7_"  style="overflow:visible;"/>
		</clipPath>
		<clipPath id="SVGID_17_" class="st6">
			<use xlink:href="#SVGID_8_"  style="overflow:visible;"/>
		</clipPath>
		<clipPath id="SVGID_18_" class="st7">
			<use xlink:href="#SVGID_9_"  style="overflow:visible;"/>
		</clipPath>
		<clipPath id="SVGID_19_" class="st8">
			<use xlink:href="#SVGID_10_"  style="overflow:visible;"/>
		</clipPath>
		<clipPath id="SVGID_20_" class="st9">
			<use xlink:href="#SVGID_11_"  style="overflow:visible;"/>
		</clipPath>
		<path class="st10" d="M57.2,66.6c0,1.2-0.1,1.9-0.2,2.2c-0.2,0.3-0.5,0.4-1,0.4c-0.6,0-0.9-0.2-1.1-0.5c-0.2-0.4-0.3-1.1-0.3-2.4
			c0-1.1,0.1-1.9,0.3-2.4c0.2-0.6,1-1.3,2.4-2.1v4.8H57.2z M54.5,56c0-1.3,0.1-2.2,0.2-2.5c0.1-0.3,0.5-0.5,1.1-0.5
			c0.5,0,0.9,0.2,1.1,0.6c0.2,0.4,0.3,1.2,0.3,2.4c0,1-0.1,1.6-0.3,2c-0.2,0.3-1.7,0.9-4.5,1.9c-2.6,0.9-4.3,1.6-4.9,2.3
			c-0.7,0.6-1,1.9-1,3.6v2c0,2.4,0.6,3.9,1.9,4.7c1.2,0.7,2.6,1.1,4.1,1.1c1.1,0,2.1-0.2,3-0.6c0.8-0.4,1.5-1.1,2-1.9V73h8.4V61.1
			c0-3.9-0.1-6.5-0.4-7.8s-1.2-2.3-2.7-3.2c-1.5-0.9-3.7-1.3-6.6-1.3c-2.4,0-4.4,0.4-5.9,1.1c-1.5,0.8-2.5,1.6-3,2.6
			s-0.8,1.8-0.8,3.6v1.1h8.1L54.5,56L54.5,56z"/>
		<path class="st10" d="M77.4,49.3v2.2c0.7-0.9,1.5-1.6,2.4-2s2-0.7,3.2-0.7c2.3,0,4.1,0.9,5.4,2.7c0.7-0.9,1.5-1.6,2.4-2
			s1.9-0.7,3-0.7c1.5,0,2.7,0.3,3.6,0.9c1,0.6,1.6,1.3,1.8,2.2c0.3,0.9,0.4,2.3,0.4,4.2V73h-8.4V57.5c0-2-0.1-3.3-0.2-3.8
			c-0.2-0.5-0.5-0.7-1.1-0.7s-1,0.2-1.2,0.7s-0.3,1.7-0.3,3.8V73H80V57.9c0-2.3-0.1-3.7-0.2-4.2S79.3,53,78.7,53
			c-0.4,0-0.7,0.1-1,0.4c-0.3,0.2-0.4,0.5-0.4,0.9c0,0.3,0,1.1,0,2.3V73h-8.4V49.3H77.4z"/>
		<path class="st10" d="M111,57.9V56c0-1.3,0.1-2.2,0.2-2.5s0.5-0.5,1.1-0.5c0.5,0,0.8,0.2,1,0.5c0.2,0.4,0.2,1.1,0.2,2.4v1.9
			L111,57.9L111,57.9z M122.1,58.4c0-2.3-0.3-4.1-0.9-5.4c-0.6-1.3-1.7-2.3-3.3-3.1c-1.6-0.8-3.6-1.2-6-1.2c-2,0-3.7,0.3-5.2,1
			c-1.5,0.6-2.6,1.6-3.3,2.8c-0.7,1.2-1,2.8-1,4.9v6.9c0,1.8,0.1,3.1,0.4,4s0.8,1.8,1.6,2.5c0.8,0.8,1.9,1.4,3.2,1.8
			c1.4,0.4,3,0.7,4.8,0.7c1.9,0,3.4-0.2,4.7-0.7c1.2-0.4,2.3-1.1,3.1-2c0.8-0.9,1.3-1.7,1.5-2.5s0.3-1.9,0.3-3.4v-1.4h-8v2.8
			c0,1.2-0.1,2-0.3,2.4c-0.2,0.4-0.7,0.6-1.3,0.6c-0.5,0-0.9-0.2-1.1-0.5s-0.3-1-0.3-2.1v-5.1h11.1
			C122.1,61.4,122.1,58.4,122.1,58.4z"/>
		<path class="st11" d="M156.4,45.5v3.2h2.8v3h-2.8v14.6c0,1.6,0.1,2.4,0.3,2.6s1,0.3,2.4,0.3V73h-3.5c-2,0-2.9-0.1-3.7-0.2
			s-1.6-0.4-2.2-0.9c-0.6-0.5-1-1.1-1.2-1.7s-0.2-2.1-0.2-4.5v-14h-1.7v-3h1.7v-3.2C148.3,45.5,156.4,45.5,156.4,45.5z"/>
		<path class="st11" d="M171.7,66.8c0,1-0.1,1.7-0.3,2s-0.5,0.5-1,0.5s-0.8-0.2-1-0.5s-0.3-1.1-0.3-2.2V55.8c0-1.2,0.1-2,0.3-2.3
			s0.5-0.5,1-0.5s0.9,0.2,1,0.5c0.2,0.3,0.2,1.1,0.2,2.3v11H171.7z M179.9,53.9c-0.3-0.8-0.8-1.6-1.5-2.4c-0.8-0.8-1.8-1.4-3.2-1.9
			s-3-0.7-5-0.7c-2.3,0-4.2,0.4-5.7,1.1c-1.5,0.7-2.5,1.7-3.1,3c-0.6,1.2-0.9,3-0.9,5.2v6.1c0,2,0.2,3.5,0.5,4.5s0.8,1.9,1.6,2.6
			c0.7,0.7,1.8,1.2,3.1,1.6c1.3,0.3,2.9,0.5,4.8,0.5c1.7,0,3.2-0.2,4.5-0.6s2.4-1,3.2-1.9s1.4-1.8,1.6-2.8c0.3-1,0.4-2.6,0.4-4.7
			v-5.8C180.3,55.9,180.1,54.7,179.9,53.9"/>
		<path class="st11" d="M143.8,59.3c-1-1.3-3.5-3-7.5-5.1c-1.4-0.7-2.2-1.3-2.5-1.8s-0.5-1.2-0.5-2.2c0-0.8,0.1-1.4,0.4-1.7
			c0.3-0.4,0.7-0.6,1.2-0.6s0.9,0.1,1.1,0.4c0.2,0.3,0.3,0.9,0.3,2v2.2h8.3v-1.2c0-2.4-0.3-4.1-0.8-5.1s-1.6-1.8-3.2-2.5
			c-1.6-0.7-3.6-1-5.9-1c-2.1,0-3.9,0.3-5.4,0.9c-1.5,0.6-2.6,1.4-3.3,2.5c-0.7,1.1-1,2.7-1,5c0,1.6,0.2,2.9,0.7,3.9
			s1.1,1.8,1.8,2.4c0.7,0.6,2.2,1.5,4.4,2.8s3.6,2.2,4.2,2.7c0.5,0.6,0.8,1.7,0.8,3.5c0,0.8-0.1,1.4-0.4,1.8
			c-0.3,0.4-0.7,0.6-1.3,0.6s-1-0.2-1.2-0.5s-0.3-1-0.3-2.2V64h-8.3v1.1c0,2.3,0.3,3.4,0.8,4.6s1.6,2.2,3.3,3
			c1.7,0.8,3.7,1.2,6.1,1.2c2.2,0,4.1-0.3,5.7-1c1.6-0.7,2.8-1.5,3.3-2.5c0.6-1,0.9-2.6,0.9-4.7C145.3,62.7,144.8,60.6,143.8,59.3"
			/>
		<path class="st11" d="M193.7,66.3c0,1.3-0.1,2.1-0.2,2.4c-0.1,0.3-0.5,0.5-1,0.5c-0.6,0-0.9-0.2-1.1-0.5c-0.2-0.4-0.2-1.2-0.2-2.7
			v-9.8c0-1.4,0.1-2.2,0.2-2.6c0.2-0.4,0.5-0.5,1.1-0.5s0.9,0.2,1,0.5s0.2,1.2,0.2,2.7V66.3z M183.2,49v29.9h7.9v-8.1
			c0.8,0.8,1.6,1.4,2.5,1.8s1.9,0.6,3,0.6c1.3,0,2.5-0.3,3.4-0.8s1.6-1.3,1.9-2.2c0.3-0.9,0.5-2.4,0.5-4.6v-10c0-1.9-0.1-3.2-0.4-4
			c-0.2-0.8-0.9-1.5-1.8-2.1c-1-0.6-2.1-0.9-3.5-0.9c-1.1,0-2.1,0.2-3,0.6c-0.9,0.4-1.8,1-2.5,1.9v-2.4h-8V49z"/>
		<path class="st10" d="M43.5,54.4h-9v-2.7c0-1.7-0.1-2.8-0.3-3.2s-0.6-0.6-1.2-0.6c-0.6,0-0.9,0.2-1.1,0.6
			c-0.2,0.4-0.3,1.3-0.3,2.8v14.4c0,1.3,0.1,2.2,0.3,2.7c0.2,0.4,0.6,0.6,1.2,0.6s1.1-0.2,1.3-0.7s0.4-1.4,0.4-2.8V62H33v-4h10.5
			v15.3h-5.8L37,71.2c-0.6,0.9-1.4,1.6-2.3,2.1c-0.9,0.5-2,0.7-3.3,0.7c-1.5,0-2.9-0.3-4.2-0.9c-1.3-0.6-2.3-1.4-3-2.4
			c-0.7-0.9-1.1-1.9-1.3-3c-0.2-1-0.3-2.6-0.3-4.6v-8.9c0-2.9,0.2-4.9,0.5-6.2c0.4-1.3,1.4-2.5,3.1-3.6s3.9-1.6,6.5-1.6
			c2.6,0,4.8,0.5,6.5,1.4s2.9,2,3.4,3.3s0.8,3.2,0.8,5.6L43.5,54.4L43.5,54.4z"/>
		<path class="st11" d="M204,48.9c0.6,0,1.1,0.5,1.1,1c0,0.6-0.5,1.1-1.1,1.1s-1.1-0.5-1.1-1.1C202.9,49.4,203.4,48.9,204,48.9
			 M204,50.9c0.5,0,0.9-0.4,0.9-0.9s-0.4-0.9-0.9-0.9s-0.9,0.4-0.9,0.9S203.5,50.9,204,50.9 M203.6,49.4h0.5c0.3,0,0.4,0.1,0.4,0.3
			s-0.1,0.3-0.3,0.3l0.4,0.5h-0.2l-0.3-0.5h-0.2v0.5h-0.2L203.6,49.4L203.6,49.4z M203.7,49.9h0.2c0.2,0,0.3,0,0.3-0.2
			s-0.1-0.2-0.3-0.2h-0.3v0.4H203.7z"/>
	</g>
</g>
</svg>
