<svg id="Layer_1" data-name="Layer 1" xmlns="http://www.w3.org/2000/svg" viewBox="0 0 788 444"><defs><style>.cls-1{fill:#e6e6e6;}.cls-2{fill:#505150;}</style></defs><title>FE-Safety_Content-Placement-0_Track-Purchases_788x444_02</title><rect class="cls-1" width="788" height="444"/><path class="cls-2" d="M468.46,330.54a18.58,18.58,0,0,1-7.51-1.49,19.22,19.22,0,0,1-6.14-4.12,19.63,19.63,0,0,1-4.13-6.14,18.79,18.79,0,0,1-1.49-7.51,20.78,20.78,0,0,1,1.14-6.51l2.31-6.93H369.82l2.31,6.93a20.71,20.71,0,0,1,1.13,6.51,18.58,18.58,0,0,1-1.49,7.51,19.11,19.11,0,0,1-10.27,10.26,19.65,19.65,0,0,1-15,0,19.11,19.11,0,0,1-10.27-10.26,18.75,18.75,0,0,1-1.49-7.51A19,19,0,0,1,337.65,301a18.16,18.16,0,0,1,8-7.07l4.23-2L292,118H269.32v-5.83h26.84L307,144.84H518.4L483.83,248.78H341.72L356.08,292H468.46A18.75,18.75,0,0,1,476,293.5a19.37,19.37,0,0,1,6.15,4.12,19.71,19.71,0,0,1,4.12,6.15,19.67,19.67,0,0,1,0,15,19.63,19.63,0,0,1-4.13,6.14,19.22,19.22,0,0,1-6.14,4.12A18.58,18.58,0,0,1,468.46,330.54Zm0-32.7a13.56,13.56,0,1,0,9.47,4A13.14,13.14,0,0,0,468.46,297.84Zm-114.46,0a13.56,13.56,0,1,0,9.46,4A13.13,13.13,0,0,0,354,297.84ZM339.73,243H479.54l30.71-92.28H309Z"/></svg>