<?xml version="1.0" encoding="utf-8"?>
<!-- Generator: Adobe Illustrator 22.0.1, SVG Export Plug-In . SVG Version: 6.00 Build 0)  -->
<svg version="1.1" id="Layer_1" xmlns="http://www.w3.org/2000/svg" xmlns:xlink="http://www.w3.org/1999/xlink" x="0px" y="0px"
	 viewBox="0 0 225 120" style="enable-background:new 0 0 225 120;" xml:space="preserve">
<style type="text/css">
	.st0{fill:#FFFFFF;}
	.st1{clip-path:url(#SVGID_2_);}
	.st2{clip-path:url(#SVGID_11_);}
	.st3{clip-path:url(#SVGID_12_);}
	.st4{clip-path:url(#SVGID_13_);}
	.st5{clip-path:url(#SVGID_14_);}
	.st6{clip-path:url(#SVGID_15_);}
	.st7{clip-path:url(#SVGID_16_);}
	.st8{clip-path:url(#SVGID_17_);}
	.st9{clip-path:url(#SVGID_18_);fill:#CE0E2D;}
</style>
<rect class="st0" width="225" height="120"/>
<g id="Artwork_5_1_">
	<defs>
		<rect id="SVGID_1_" x="19.5" y="42.1" width="186" height="39.7"/>
	</defs>
	<clipPath id="SVGID_2_">
		<use xlink:href="#SVGID_1_"  style="overflow:visible;"/>
	</clipPath>
	<g class="st1">
		<defs>
			<rect id="SVGID_3_" x="19.5" y="42.1" width="186" height="39.7"/>
		</defs>
		<defs>
			<rect id="SVGID_4_" x="19.5" y="42.1" width="186" height="39.7"/>
		</defs>
		<defs>
			<rect id="SVGID_5_" x="19.5" y="42.1" width="186" height="39.7"/>
		</defs>
		<defs>
			<rect id="SVGID_6_" x="19.5" y="42.1" width="186" height="39.7"/>
		</defs>
		<defs>
			<rect id="SVGID_7_" x="19.5" y="42.1" width="186" height="39.7"/>
		</defs>
		<defs>
			<rect id="SVGID_8_" x="19.5" y="42.1" width="186" height="39.7"/>
		</defs>
		<defs>
			<rect id="SVGID_9_" x="19.5" y="42.1" width="186" height="39.7"/>
		</defs>
		<defs>
			<rect id="SVGID_10_" x="19.5" y="42.1" width="186" height="39.7"/>
		</defs>
		<clipPath id="SVGID_11_">
			<use xlink:href="#SVGID_3_"  style="overflow:visible;"/>
		</clipPath>
		<clipPath id="SVGID_12_" class="st2">
			<use xlink:href="#SVGID_4_"  style="overflow:visible;"/>
		</clipPath>
		<clipPath id="SVGID_13_" class="st3">
			<use xlink:href="#SVGID_5_"  style="overflow:visible;"/>
		</clipPath>
		<clipPath id="SVGID_14_" class="st4">
			<use xlink:href="#SVGID_6_"  style="overflow:visible;"/>
		</clipPath>
		<clipPath id="SVGID_15_" class="st5">
			<use xlink:href="#SVGID_7_"  style="overflow:visible;"/>
		</clipPath>
		<clipPath id="SVGID_16_" class="st6">
			<use xlink:href="#SVGID_8_"  style="overflow:visible;"/>
		</clipPath>
		<clipPath id="SVGID_17_" class="st7">
			<use xlink:href="#SVGID_9_"  style="overflow:visible;"/>
		</clipPath>
		<clipPath id="SVGID_18_" class="st8">
			<use xlink:href="#SVGID_10_"  style="overflow:visible;"/>
		</clipPath>
		<path class="st9" d="M19.5,62c0-11,8.9-19.9,19.9-19.9S59.2,51,59.2,62s-8.9,19.9-19.9,19.9S19.5,73,19.5,62 M39.4,75.2
			c7.3,0,13.2-5.9,13.2-13.2s-5.9-13.2-13.2-13.2S26.2,54.7,26.2,62S32.1,75.2,39.4,75.2 M39.4,68.7c3.8,0,6.8-3.1,6.8-6.8
			c0-3.8-3.1-6.8-6.8-6.8c-3.8,0-6.8,3.1-6.8,6.8C32.5,65.7,35.6,68.7,39.4,68.7"/>
		<polygon class="st9" points="65.7,47.7 88.3,47.7 88.3,53.5 80.5,53.5 80.5,76.3 73.6,76.3 73.6,53.5 65.7,53.5 		"/>
		<path class="st9" d="M109.4,47.7h13.4c7.6,0,8.7,5.2,8.7,8.3c0,4.4-3.8,6.6-4.1,6.7c0,0,3.3,1.2,3.3,5V73c0,2.1,1.3,2.7,1.5,3.2
			h-5.5c-2.6-0.3-2.6-2.4-2.5-3.6V68c-0.1-1.1-0.4-2.4-2.7-2.4H116v10.6h-6.6V47.7z M122.4,53.5H116v5.7c0,0,4.9,0,5.7,0
			c2,0,3.5-0.9,3.5-2.9C125.2,54.2,123.9,53.5,122.4,53.5"/>
		<polygon class="st9" points="160.7,47.7 160.7,76.3 181.3,76.3 181.3,70.5 167.4,70.5 167.4,64.1 179.3,64.1 179.3,58.7 
			167.4,58.7 167.4,53.5 181.3,53.5 181.3,47.7 		"/>
		<polygon class="st9" points="182.3,53.5 190.4,53.5 190.4,76.3 197.2,76.3 197.2,53.5 205.5,53.5 205.5,47.7 182.3,47.7 		"/>
		<path class="st9" d="M91.6,47.7h7.3l10,28.6h-7.1l-2.1-5.9h-8.4l-1.9,5.9h-7.1L91.6,47.7z M95.4,57.8L93,65.2h5L95.4,57.8z"/>
		<path class="st9" d="M158.3,60.4H146V66h5.8c0,1.1,0.2,2.3-1.2,3.9c-0.5,0.5-2.1,1.8-4.3,1.8c-1.9,0-3.2-0.5-4.4-1.5
			c-2.6-2.2-3.2-6.3-3.2-8.5c0-2.7,1.1-9.4,7.7-9.7c0,0,4.5-0.3,5.6,5.1h6.2c-0.1-2.7-3.3-10.4-11.8-10.4c-2.9,0-6.7,0.9-9.8,4
			c-2.2,2.2-4.3,6-4.3,11.3c0,5.8,2.1,9.5,4.1,11.5c3.4,3.6,6.8,3.9,8.6,3.9c1.4,0,4.1-0.2,7.6-2.6l0.9,1.6h4.7L158.3,60.4
			L158.3,60.4z"/>
		<path class="st9" d="M200.7,75.5h-0.4v-2.4h0.9c0.6,0,0.9,0.2,0.9,0.7c0,0.4-0.3,0.6-0.6,0.7l0.7,1.1h-0.5l-0.6-1h-0.4L200.7,75.5
			L200.7,75.5z M201.1,74.1c0.3,0,0.6,0,0.6-0.4c0-0.3-0.3-0.3-0.5-0.3h-0.5v0.7C200.7,74.1,201.1,74.1,201.1,74.1z M201.1,76.4
			c-1.3,0-2.2-1-2.2-2.2c0-1.3,1-2.2,2.2-2.2s2.2,0.9,2.2,2.2C203.3,75.6,202.3,76.4,201.1,76.4 M201.1,72.4c-1,0-1.7,0.8-1.7,1.8
			s0.7,1.8,1.7,1.8c0.9,0,1.7-0.7,1.7-1.8C202.8,73.2,202.1,72.4,201.1,72.4"/>
	</g>
</g>
</svg>
