<svg id="Layer_1" data-name="Layer 1" xmlns="http://www.w3.org/2000/svg" viewBox="0 0 788 444"><defs><style>.cls-1{fill:#e6e6e6;}.cls-2{fill:#505150;}</style></defs><title>FE-Safety_Content-Placement-0_Mute-or-Block_788x444_02</title><rect class="cls-1" width="788" height="444"/><path class="cls-2" d="M393.59,340.17a118.47,118.47,0,0,1-31.26-4.1A114.65,114.65,0,0,1,334.2,324.2,118.93,118.93,0,0,1,292,282a114.65,114.65,0,0,1-11.87-28.13,123,123,0,0,1-4.25-31.48,118.6,118.6,0,0,1,4.1-31.24A115,115,0,0,1,291.85,163a118.77,118.77,0,0,1,42.21-42.21A114.87,114.87,0,0,1,362.19,109a123.72,123.72,0,0,1,31.47-4.25,118.55,118.55,0,0,1,31.24,4.1A114.68,114.68,0,0,1,453,120.68a118.93,118.93,0,0,1,42.2,42.2A114.49,114.49,0,0,1,507.1,191a123,123,0,0,1,4.25,31.47,118.55,118.55,0,0,1-4.1,31.24,114.87,114.87,0,0,1-11.87,28.13,118.85,118.85,0,0,1-42.21,42.2,114.58,114.58,0,0,1-28.12,11.87A122.88,122.88,0,0,1,393.59,340.17ZM309.68,152.58a105.55,105.55,0,0,0-18.8,32.64,113,113,0,0,0-6.51,37.18,108.1,108.1,0,0,0,14.91,55.15,110.11,110.11,0,0,0,17.06,22,113.11,113.11,0,0,0,22.15,17.2,104.07,104.07,0,0,0,26.13,11,116.09,116.09,0,0,0,28.94,3.88h0a110.15,110.15,0,0,0,37.11-6.36,106,106,0,0,0,32.8-19l4.33-3.66L313.34,148.23Zm83.94-39.39a110.05,110.05,0,0,0-37.07,6.36,105.93,105.93,0,0,0-32.8,19l-4.33,3.65L473.89,296.64l3.66-4.34a105.9,105.9,0,0,0,18.81-32.64,113.25,113.25,0,0,0,6.5-37.18A108.1,108.1,0,0,0,488,167.33a110.11,110.11,0,0,0-17.06-22,113.11,113.11,0,0,0-22.15-17.2,104.16,104.16,0,0,0-26.13-11.05,115.56,115.56,0,0,0-28.94-3.87Z"/></svg>