<svg id="Layer_1" data-name="Layer 1" xmlns="http://www.w3.org/2000/svg" viewBox="0 0 788 444"><defs><style>.cls-1{fill:#e6e6e6;}.cls-2{fill:#505150;}</style></defs><title>FE-Safety_Content-Placement-0_Manage-Others-interact_788x444_02</title><rect class="cls-1" width="788" height="444"/><path class="cls-2" d="M471.06,291.85a76.77,76.77,0,0,0-5.66-26.77,74,74,0,0,0-16-24.08,72.84,72.84,0,0,0-24-15.89,81.12,81.12,0,0,0-30-5.81h0A76.88,76.88,0,0,0,357,229.45a73.87,73.87,0,0,0-27,27,78.71,78.71,0,0,0-7.58,18.2,72,72,0,0,0-2.63,17.16H314A80.76,80.76,0,0,1,317.73,270a83.06,83.06,0,0,1,10.83-22,78,78,0,0,1,16.89-17.62,85.12,85.12,0,0,1,22.33-12.11l6.56-2.42-6.16-3.32a56.2,56.2,0,0,1-21.92-21,60.58,60.58,0,0,1-6-14.1,57.25,57.25,0,0,1,2.32-37.66,59.48,59.48,0,0,1,12.29-18.31A56.18,56.18,0,0,1,373,109.15a58.38,58.38,0,0,1,22.41-4.48,55.94,55.94,0,0,1,22.25,4.47A59.3,59.3,0,0,1,436,121.43a56,56,0,0,1,12.25,18.16A58.43,58.43,0,0,1,452.72,162a57.13,57.13,0,0,1-2.06,15.29,56.09,56.09,0,0,1-6,13.95,61.08,61.08,0,0,1-9.43,11.94,56.34,56.34,0,0,1-12.45,9.22l-6.21,3.43,6.71,2.31a78.06,78.06,0,0,1,39.15,29.7,82.26,82.26,0,0,1,14.41,44ZM395.41,110.46a50.41,50.41,0,0,0-20.05,4,51.11,51.11,0,0,0-16.3,11.07,54.23,54.23,0,0,0-11,16.34A49.45,49.45,0,0,0,343.88,162a50.36,50.36,0,0,0,4,20A51,51,0,0,0,359,198.33a54.45,54.45,0,0,0,16.34,11,49.52,49.52,0,0,0,20.07,4.14,50.36,50.36,0,0,0,20-4,51.15,51.15,0,0,0,16.31-11.07,54.6,54.6,0,0,0,11-16.34A49.43,49.43,0,0,0,446.93,162a50.81,50.81,0,0,0-15.11-36.35,54.45,54.45,0,0,0-16.34-11A49.56,49.56,0,0,0,395.41,110.46Z"/><path class="cls-2" d="M374.41,340.17l-14.74-14.73,14.74-14.74,3.63,3.64-8.48,8.51h68.67V328H369.56l8.48,8.52Zm41.33-62,3.64-3.64,14.73,14.74L419.38,304l-3.64-3.63,8.48-8.52H355.55v-5.17h68.67Z"/></svg>