<svg id="Layer_1" data-name="Layer 1" xmlns="http://www.w3.org/2000/svg" viewBox="0 0 788 444"><defs><style>.cls-1{fill:#e6e6e6;}.cls-2{fill:none;stroke:#515151;stroke-linecap:square;stroke-miterlimit:8;stroke-width:7px;}</style></defs><title>FE-Safety_Content-Placement-0_Benefits_788x444_02</title><rect class="cls-1" width="788" height="444"/><path class="cls-2" d="M514.15,329.76v-1.47a48.21,48.21,0,0,0-95.09,0v1.47m41.76-105.35a55.82,55.82,0,0,0-92.92-11.12m18.86,116.35a55.89,55.89,0,1,0-111.78,0M466.64,223.89A32.09,32.09,0,1,0,498.55,256,32.05,32.05,0,0,0,466.64,223.89ZM410.75,113a40.12,40.12,0,1,0,39.9,40.15A40.07,40.07,0,0,0,410.75,113Zm-40,120.39a39.91,39.91,0,1,1-39.91-40.15A40,40,0,0,1,370.78,233.4Z"/></svg>