<?xml version="1.0" encoding="utf-8"?>
<!-- Generator: Adobe Illustrator 22.0.1, SVG Export Plug-In . SVG Version: 6.00 Build 0)  -->
<svg version="1.1" id="Layer_1" xmlns="http://www.w3.org/2000/svg" xmlns:xlink="http://www.w3.org/1999/xlink" x="0px" y="0px"
	 viewBox="0 0 225 120" style="enable-background:new 0 0 225 120;" xml:space="preserve">
<style type="text/css">
	.st0{fill:#FFFFFF;}
	.st1{clip-path:url(#SVGID_2_);}
	.st2{clip-path:url(#SVGID_4_);fill:#77787B;}
	.st3{clip-path:url(#SVGID_4_);fill:#F25022;}
	.st4{clip-path:url(#SVGID_4_);fill:#7FBA00;}
	.st5{clip-path:url(#SVGID_4_);fill:#00A4EF;}
	.st6{clip-path:url(#SVGID_4_);fill:#FFB900;}
</style>
<rect class="st0" width="225" height="120"/>
<g id="Artwork_1_1_">
	<g>
		<defs>
			<rect id="SVGID_1_" x="22" y="40.7" width="181" height="38.6"/>
		</defs>
		<clipPath id="SVGID_2_">
			<use xlink:href="#SVGID_1_"  style="overflow:visible;"/>
		</clipPath>
		<g class="st1">
			<defs>
				<rect id="SVGID_3_" x="22" y="40.7" width="181" height="38.6"/>
			</defs>
			<clipPath id="SVGID_4_">
				<use xlink:href="#SVGID_3_"  style="overflow:visible;"/>
			</clipPath>
			<path class="st2" d="M97.2,48.1v23.2h-4V53.1h-0.1l-7.2,18.2h-2.7l-7.4-18.2h0v18.2h-3.7V48.1h5.8l6.7,17.2h0.1l7-17.2H97.2z
				 M100.6,49.9c0-0.6,0.2-1.2,0.7-1.6c0.5-0.4,1-0.7,1.7-0.7c0.7,0,1.3,0.2,1.7,0.7c0.5,0.4,0.7,1,0.7,1.6c0,0.6-0.2,1.2-0.7,1.6
				c-0.5,0.4-1,0.6-1.7,0.6s-1.2-0.2-1.7-0.7C100.8,51,100.6,50.5,100.6,49.9 M104.9,71.3H101V54.7h3.9V71.3z M116.7,68.4
				c0.6,0,1.2-0.1,1.9-0.4c0.7-0.3,1.3-0.6,1.9-1.1v3.6c-0.6,0.4-1.3,0.6-2.1,0.8c-0.8,0.2-1.7,0.3-2.6,0.3c-2.4,0-4.4-0.8-6-2.3
				c-1.5-1.5-2.3-3.5-2.3-5.9c0-2.7,0.8-4.9,2.3-6.6c1.6-1.7,3.8-2.6,6.6-2.6c0.7,0,1.5,0.1,2.2,0.3c0.7,0.2,1.3,0.4,1.8,0.7v3.7
				c-0.6-0.4-1.2-0.8-1.9-1c-0.6-0.2-1.3-0.4-1.9-0.4c-1.5,0-2.8,0.5-3.7,1.5c-0.9,1-1.4,2.4-1.4,4.1c0,1.7,0.5,3,1.4,3.9
				C113.9,68,115.2,68.4,116.7,68.4 M131.7,54.4c0.3,0,0.6,0,0.8,0.1c0.2,0,0.5,0.1,0.6,0.2v4c-0.2-0.2-0.5-0.3-0.9-0.4
				c-0.4-0.1-0.9-0.2-1.4-0.2c-1,0-1.8,0.4-2.4,1.2c-0.7,0.8-1,2.1-1,3.7v8.4h-3.9V54.7h3.9v2.6h0.1c0.4-0.9,0.9-1.6,1.6-2.1
				C129.9,54.7,130.7,54.4,131.7,54.4 M133.4,63.2c0-2.7,0.8-4.9,2.3-6.5c1.6-1.6,3.7-2.4,6.5-2.4c2.6,0,4.6,0.8,6.1,2.3
				c1.5,1.5,2.2,3.6,2.2,6.3c0,2.7-0.8,4.8-2.3,6.4c-1.6,1.6-3.7,2.4-6.3,2.4c-2.6,0-4.6-0.8-6.1-2.3
				C134.2,67.9,133.4,65.8,133.4,63.2 M137.5,63.1c0,1.7,0.4,3.1,1.2,4c0.8,0.9,1.9,1.4,3.4,1.4c1.4,0,2.5-0.5,3.2-1.4
				c0.7-0.9,1.1-2.3,1.1-4.1c0-1.8-0.4-3.1-1.2-4c-0.8-0.9-1.8-1.4-3.2-1.4c-1.4,0-2.5,0.5-3.3,1.4C137.9,60,137.5,61.3,137.5,63.1
				 M156.3,59c0,0.6,0.2,1,0.5,1.3c0.4,0.3,1.1,0.7,2.4,1.2c1.6,0.6,2.7,1.3,3.3,2.1c0.6,0.8,0.9,1.7,0.9,2.8c0,1.6-0.6,2.8-1.8,3.8
				c-1.2,0.9-2.8,1.4-4.9,1.4c-0.7,0-1.5-0.1-2.3-0.3c-0.8-0.2-1.5-0.4-2.1-0.6V67c0.7,0.5,1.5,0.9,2.3,1.2c0.8,0.3,1.6,0.4,2.2,0.4
				c0.9,0,1.5-0.1,2-0.4c0.4-0.2,0.6-0.7,0.6-1.2c0-0.5-0.2-1-0.7-1.4c-0.4-0.4-1.3-0.8-2.5-1.3c-1.4-0.6-2.5-1.3-3.1-2
				c-0.6-0.8-0.9-1.7-0.9-2.9c0-1.5,0.6-2.7,1.8-3.7c1.2-1,2.7-1.4,4.6-1.4c0.6,0,1.2,0.1,2,0.2c0.7,0.1,1.3,0.3,1.8,0.5v3.7
				c-0.5-0.3-1.1-0.6-1.8-0.9c-0.7-0.2-1.4-0.4-2.1-0.4c-0.7,0-1.3,0.1-1.7,0.4C156.5,58.1,156.3,58.5,156.3,59 M165.1,63.2
				c0-2.7,0.8-4.9,2.3-6.5c1.6-1.6,3.7-2.4,6.5-2.4c2.6,0,4.6,0.8,6.1,2.3c1.5,1.5,2.2,3.6,2.2,6.3c0,2.7-0.8,4.8-2.3,6.4
				c-1.6,1.6-3.7,2.4-6.3,2.4c-2.6,0-4.6-0.8-6.1-2.3C165.8,67.9,165.1,65.8,165.1,63.2 M169.2,63.1c0,1.7,0.4,3.1,1.2,4
				c0.8,0.9,1.9,1.4,3.4,1.4c1.4,0,2.5-0.5,3.2-1.4c0.7-0.9,1.1-2.3,1.1-4.1c0-1.8-0.4-3.1-1.2-4c-0.8-0.9-1.8-1.4-3.2-1.4
				c-1.4,0-2.5,0.5-3.3,1.4C169.6,60,169.2,61.3,169.2,63.1 M195.1,57.9h-5.8v13.4h-4V57.9h-2.8v-3.2h2.8v-2.3
				c0-1.7,0.6-3.2,1.7-4.3c1.1-1.1,2.6-1.7,4.4-1.7c0.5,0,0.9,0,1.3,0.1c0.4,0,0.7,0.1,1,0.2v3.4c-0.1-0.1-0.4-0.2-0.7-0.3
				c-0.3-0.1-0.7-0.2-1.1-0.2c-0.8,0-1.4,0.3-1.9,0.8c-0.4,0.5-0.7,1.3-0.7,2.3v2h5.8v-3.7l3.9-1.2v4.9h4v3.2h-4v7.8
				c0,1,0.2,1.7,0.6,2.2c0.4,0.4,1,0.6,1.8,0.6c0.2,0,0.5-0.1,0.8-0.2c0.3-0.1,0.6-0.2,0.8-0.4v3.2c-0.2,0.1-0.7,0.3-1.2,0.4
				c-0.6,0.1-1.1,0.2-1.7,0.2c-1.6,0-2.9-0.4-3.7-1.3c-0.8-0.9-1.2-2.2-1.2-4V57.9z"/>
			<rect x="22" y="40.7" class="st3" width="18.3" height="18.3"/>
			<rect x="42.3" y="40.7" class="st4" width="18.3" height="18.3"/>
			<rect x="22" y="61" class="st5" width="18.3" height="18.3"/>
			<rect x="42.3" y="61" class="st6" width="18.3" height="18.3"/>
		</g>
	</g>
</g>
</svg>
