<?xml version="1.0" encoding="utf-8"?>
<!-- Generator: Adobe Illustrator 23.1.1, SVG Export Plug-In . SVG Version: 6.00 Build 0)  -->
<svg version="1.1" id="Layer_1" xmlns="http://www.w3.org/2000/svg" xmlns:xlink="http://www.w3.org/1999/xlink" x="0px" y="0px"
	 viewBox="0 0 788 444" style="enable-background:new 0 0 788 444;" xml:space="preserve">
<style type="text/css">
	.st0{fill:#E6E6E6;}
	.st1{fill:none;stroke:#515151;stroke-width:6;stroke-linecap:square;stroke-miterlimit:8;}
</style>
<rect class="st0" width="788" height="444"/>
<path class="st1" d="M502,243.3c0-31.1-26.3-57-57.9-57c-32.3,0-57.9,25.8-57.9,57 M443.4,186.3c21.5,0,39.7-17.2,39.7-39.1
	c0-21.9-18.2-39.1-39.7-39.1c-22.2,0-39.7,17.2-39.7,39.1C403.6,169.1,421.2,186.3,443.4,186.3z M405,336.7c0-31.1-26.3-57-57.9-57
	c-32.3,0-57.9,25.8-57.9,57 M306.7,240.6c0-21.9,17.5-39.1,39.7-39.1c21.5,0,39.7,17.2,39.7,39.1s-18.2,39.1-39.7,39.1
	C324.2,279.7,306.7,262.5,306.7,240.6z"/>
</svg>
