<?xml version="1.0" encoding="utf-8"?>
<!-- Generator: Adobe Illustrator 25.0.0, SVG Export Plug-In . SVG Version: 6.00 Build 0)  -->
<svg version="1.1" id="Layer_1" xmlns="http://www.w3.org/2000/svg" xmlns:xlink="http://www.w3.org/1999/xlink" x="0px" y="0px"
	 viewBox="0 0 225 120" style="enable-background:new 0 0 225 120;" xml:space="preserve">
<style type="text/css">
	.st0{fill:#FFFFFF;}
	.st1{fill:#FF9900;}
</style>
<rect class="st0" width="225" height="120"/>
<g>
	<g>
		<g id="Artwork_10_1_">
			<g>
				<g>
					<path class="st1" d="M91.3,75.3C83.8,78.5,75.6,80,68.1,80c-11,0-21.7-3-30.4-8.1c-0.8-0.4-1.3,0.3-0.7,0.9
						c8,7.2,18.6,11.6,30.4,11.6c8.4,0,18.1-2.6,24.9-7.6C93.4,76,92.5,74.8,91.3,75.3"/>
					<path class="st1" d="M87.1,72.5c-0.6,0.4-0.5,1,0.2,0.9c2.2-0.3,7-0.8,7.8,0.3c0.9,1.1-1,5.6-1.8,7.7c-0.2,0.6,0.3,0.9,0.8,0.4
						c3.6-3,4.5-9.3,3.8-10.3C97.2,70.5,90.9,69.8,87.1,72.5"/>
					<path d="M100.2,64.8c-2.1-1.2-4.4-1.5-6.7-1.4l6.1-8.7c0.6-0.8,0.9-1.3,0.9-1.7v-2.3c0-0.4-0.3-0.7-0.7-0.7H88.1
						c-0.4,0-0.7,0.3-0.7,0.7v2.6c0,0.4,0.3,0.7,0.7,0.7h6.2l-7.1,10.1c-0.4,0.6-0.4,1.4-0.4,1.8v2.7c0,0.4,0.4,0.8,0.8,0.6
						c4-2.1,8.8-1.9,12.4,0c0.4,0.2,0.9-0.2,0.9-0.6v-2.8C100.8,65.4,100.7,65.1,100.2,64.8"/>
					<path d="M40.9,69.8h3.6c0.4,0,0.7-0.3,0.7-0.7v-9.7c0-2.1-0.1-5.1,2.5-5.1c2.5,0,2.2,3,2.2,5.1v9.7c0,0.4,0.3,0.6,0.6,0.7H54
						c0.4,0,0.7-0.3,0.7-0.7v-9.7c0-1,0-2.6,0.3-3.5c0.4-0.9,1.3-1.5,2.1-1.5c1,0,1.8,0.3,2.1,1.6c0.2,0.7,0.1,2.7,0.1,3.4v9.7
						c0,0.4,0.3,0.6,0.6,0.7h3.6c0.4,0,0.7-0.3,0.7-0.7V57.5c0-2,0.2-4.2-0.9-5.8c-1-1.4-2.6-2-4.1-2c-2.1,0-4.1,1.1-4.9,3.4
						c-1-2.3-2.4-3.4-4.7-3.4c-2.2,0-3.8,1.1-4.7,3.4h-0.1v-2.4c0-0.3-0.3-0.6-0.6-0.6h-3.3c-0.4,0-0.7,0.3-0.7,0.7v18.4
						C40.3,69.5,40.5,69.8,40.9,69.8"/>
					<path d="M110.7,49.7c-5.2,0-8.1,4.4-8.1,10.2c0,5.7,2.8,10.3,8.1,10.3c5,0,8.2-4.4,8.2-10.1C118.8,54.3,116,49.7,110.7,49.7
						 M110.7,66.4c-2.8,0-2.8-4.8-2.8-7s0.2-5.8,2.8-5.8c1.1,0,1.9,0.5,2.3,1.8c0.5,1.5,0.5,3.3,0.5,4.9
						C113.6,62.5,113.4,66.4,110.7,66.4"/>
					<path d="M131.1,49.7c-2.5,0-3.9,1.2-4.9,3.7h-0.1v-2.8c-0.1-0.3-0.3-0.5-0.6-0.5h-3.3c-0.4,0-0.7,0.3-0.7,0.6v18.4
						c0,0.4,0.3,0.6,0.6,0.7h3.6c0.4,0,0.7-0.3,0.7-0.7v-9.9c0-1.2,0.1-2.4,0.6-3.5c0.4-0.9,1.2-1.5,2.1-1.5c2.5,0,2.2,2.9,2.2,5v10
						c0,0.3,0.3,0.6,0.6,0.6h3.6c0.4,0,0.6-0.3,0.7-0.6V57.6c0-1.8,0-4.3-0.9-5.7C134.3,50.3,132.7,49.7,131.1,49.7"/>
					<path d="M140.2,66.6c-1,0-1.8,0.7-1.8,1.7c0,0.9,0.8,1.7,1.8,1.7s1.8-0.8,1.8-1.7S141.2,66.6,140.2,66.6"/>
					<path d="M193.8,49.6h-0.1h-0.1c-2.5,0-4.3,1.8-5.3,4.2c-0.6-2.5-2.3-4.2-4.7-4.2h-0.1h-0.1c-2.2,0-3.9,1.7-4.9,3.8v-2.7
						c0-0.3-0.3-0.6-0.7-0.6h-1.3c-0.3,0-0.6,0.3-0.6,0.6v18.4c0,0.4,0.3,0.7,0.7,0.7h1.6c0.4,0,0.6-0.3,0.6-0.7V58.5
						c0-1.6,0.2-3.2,1-4.5c0.7-1,1.8-1.9,2.9-1.9c1.1,0.1,2.1,0.8,2.7,1.9c0.5,1,0.6,2.2,0.6,3.3v11.8c0,0.4,0.3,0.7,0.7,0.7h1.6
						c0.3,0,0.6-0.3,0.6-0.6v-10c0-1.9,0-3.3,0.9-4.9c0.7-1.2,1.9-2.1,3.1-2.2c1.1,0.1,2.2,0.8,2.7,2s0.5,2.6,0.5,3.9v11.1
						c0,0.3,0.3,0.6,0.7,0.6h1.6c0.4,0,0.6-0.3,0.6-0.7V57.9c0-1.8,0-4-0.8-5.6C197.2,50.7,195.6,49.6,193.8,49.6"/>
					<path d="M166.3,49.6h-0.1h-0.1c-5.1,0-7.8,4.7-7.8,10.2c0,5.2,2.3,10.4,7.4,10.4h0.1h0.1c5.1,0,7.9-4.8,7.9-10.3
						C173.8,54.7,171.3,49.6,166.3,49.6 M169.8,64.8c-0.8,1.7-2.1,2.8-3.8,2.8c-1.5-0.1-2.9-1-3.6-2.5c-0.7-1.5-1-3.6-1-5.4
						c0-1.6,0.2-3.5,0.8-4.9c0.7-1.7,2.1-2.7,3.7-2.8c1.4,0.1,2.8,0.9,3.5,2.3c0.9,1.6,1.1,3.5,1.1,5.4
						C170.6,61.5,170.5,63.3,169.8,64.8"/>
					<path d="M155.9,62.8h-1.5c-0.3,0-0.6,0.2-0.7,0.5c-0.5,2.4-1.7,4.2-4,4.3c-3.4-0.1-4.2-4.7-4.2-7.8c0-3.2,1-7.5,4.4-7.6
						c2.2,0.1,3.5,1.9,3.8,4.1c0.1,0.3,0.3,0.6,0.6,0.6h1.6c0.3,0,0.6-0.3,0.6-0.6c-0.5-4-3-6.7-6.5-6.7h-0.1h-0.1
						c-5,0-7.3,5.2-7.3,10.3s2.2,10.2,7.2,10.2h0.1h0.1c3.5,0,5.9-2.7,6.6-6.8C156.6,63.1,156.3,62.8,155.9,62.8"/>
					<path d="M78,57.3c-2.1,0.2-4.8,0.4-6.7,1.2c-2.2,1-3.8,2.9-3.8,5.9c0,3.7,2.3,5.6,5.4,5.6c2.5,0,3.9-0.6,5.9-2.6
						c0.7,0.9,0.9,1.4,2.1,2.4c0.3,0.1,0.6,0.1,0.8-0.1l0,0c0.7-0.6,2-1.8,2.7-2.4c0.3-0.2,0.2-0.6,0-1C83.7,65.4,83,64.7,83,63
						v-5.6c0-2.4,0.2-4.5-1.6-6.2c-1.4-1.3-3.7-1.8-5.4-1.8c-3.4,0-7.2,1.3-8,5.5c-0.1,0.4,0.2,0.7,0.5,0.8l3.5,0.4
						c0.3,0,0.6-0.3,0.6-0.7c0.3-1.5,1.5-2.2,2.9-2.2c0.7,0,1.6,0.3,2,0.9C78.1,55,78,56,78,56.9V57.3z M77.3,64.8
						c-0.6,1-1.5,1.6-2.5,1.6c-1.4,0-2.2-1-2.2-2.6c0-3.1,2.7-3.6,5.3-3.6V61C78,62.4,78,63.6,77.3,64.8"/>
					<path d="M37.4,66.4c-0.7-0.9-1.4-1.6-1.4-3.3v-5.6c0-2.4,0.2-4.5-1.6-6.2C33,50,30.7,49.5,29,49.5c-3.4,0-7.2,1.3-8,5.5
						c-0.1,0.4,0.2,0.7,0.5,0.8l3.5,0.4c0.3,0,0.6-0.3,0.6-0.7c0.3-1.5,1.5-2.2,2.9-2.2c0.7,0,1.6,0.3,2,0.9
						c0.5,0.7,0.4,1.7,0.4,2.6v0.5c-2.1,0.2-4.8,0.4-6.7,1.2c-2.2,1-3.8,2.9-3.8,5.9c0,3.7,2.3,5.6,5.4,5.6c2.5,0,3.9-0.6,5.9-2.6
						c0.7,0.9,0.9,1.4,2.1,2.4c0.3,0.1,0.6,0.1,0.8-0.1l0,0c0.7-0.6,2-1.8,2.7-2.4C37.7,67.1,37.7,66.7,37.4,66.4 M30.4,64.8
						c-0.6,1-1.5,1.6-2.5,1.6c-1.4,0-2.2-1-2.2-2.6c0-3.1,2.7-3.6,5.3-3.6V61C31.1,62.4,31.1,63.6,30.4,64.8"/>
					<path d="M203,51.9c0.1-0.1,0.4-0.1,0.4-0.5c0-0.6-0.5-0.6-0.7-0.6H202V53h0.4v-0.8h0.4c0.1,0,0.2,0.1,0.2,0.2
						c0,0,0.1,0.6,0.1,0.7h0.4c-0.1-0.1-0.1-0.4-0.1-0.6C203.3,52.1,203.3,51.9,203,51.9 M202.6,51.8h-0.3v-0.6h0.3
						c0.1,0,0.3,0,0.3,0.3C203,51.6,202.9,51.8,202.6,51.8"/>
					<path d="M202.6,50c-1,0-1.9,0.8-1.9,1.9c0,1,0.9,1.9,1.9,1.9s1.9-0.8,1.9-1.9S203.6,50,202.6,50 M202.6,53.5
						c-0.9,0-1.6-0.7-1.6-1.6c0-0.9,0.7-1.6,1.6-1.6c0.9,0,1.6,0.7,1.6,1.6C204.2,52.8,203.5,53.5,202.6,53.5"/>
				</g>
			</g>
		</g>
	</g>
</g>
</svg>
