<svg id="Layer_1" data-name="Layer 1" xmlns="http://www.w3.org/2000/svg" viewBox="0 0 788 444"><defs><style>.cls-1{fill:#e6e6e6;}.cls-2{fill:none;stroke:#515151;stroke-miterlimit:8;stroke-width:6px;}</style></defs><title>FE-Safety_Content-Placement-0_Code-of-Conduct_788x444_02</title><rect class="cls-1" width="788" height="444"/><path class="cls-2" d="M484.33,226.61l35.88-35.88a2.92,2.92,0,0,0,0-4l-82.28-82.12h0L364.41,129a3.06,3.06,0,0,0-1.61,1.48l-23.95,47.72a27.25,27.25,0,0,0-2.09,10.5,16.8,16.8,0,0,0,16.86,16.83,25.28,25.28,0,0,0,25.29-25.24,25.28,25.28,0,0,1,25.3-25.24,20.23,20.23,0,0,1,12.67,4.24l83.23,83.06a17.84,17.84,0,0,1-.14,25.45,18,18,0,0,1-25.29-.34l-14.63-14.61m-109.6,56.82a17.87,17.87,0,0,0,25.29,25.24l14.77-14.74a17.87,17.87,0,0,0-25.29-25.24Zm-25.29-25.24a17.87,17.87,0,1,0,25.29,25.24l14.77-14.74a17.87,17.87,0,1,0-25.29-25.25Zm-25.29-25.25a17.87,17.87,0,1,0,25.29,25.25l14.77-14.75a17.87,17.87,0,0,0-25.29-25.24Zm83.29,68.39,7.35,7.34a17.87,17.87,0,0,0,25.3-25.24l8.43,8.41a17.87,17.87,0,1,0,25.29-25.24l-14.77-14.74m0,0,14.77,14.74a17.87,17.87,0,0,0,25.29-25.24l-14.77-14.75M274.58,234a17.87,17.87,0,0,0,25.29,25.24l14.77-14.74a17.87,17.87,0,1,0-25.29-25.24Zm20-20-23.27-23.23a2.92,2.92,0,0,1,0-4l80.26-80.1a2.94,2.94,0,0,1,4,0l19.08,19"/></svg>