<svg id="Layer_1" data-name="Layer 1" xmlns="http://www.w3.org/2000/svg" viewBox="0 0 788 444"><defs><style>.cls-1{fill:#e6e6e6;}.cls-2{fill:none;stroke:#515151;stroke-linecap:square;stroke-miterlimit:8;stroke-width:6px;}</style></defs><title>FE-Safety_Content-Placement-0_Allowance_788x444_02</title><rect class="cls-1" width="788" height="444"/><path class="cls-2" d="M336.87,209.32a3.7,3.7,0,1,0-3.64-3.7A3.47,3.47,0,0,0,336.87,209.32Zm66.31-68-25.5-.73-38.62-24.39V153.9c0,1.48-.73,2.95-2.19,2.95-2.91,1.48-9.47,5.91-24,19.22-23.32,20.69-27,31-27,31-8,0-13.84,6.65-13.84,14.78v17.74c0,8.13,5.83,14.78,13.84,14.78h6.56c0,28.82,24.77,48.77,44.44,48.77v18.47c0,8.13,6.56,14.78,13.85,14.78h18.21c8,0,13.85-6.65,13.85-14.78h53.91c0,8.13,6.56,14.78,13.85,14.78h18.21c8,0,13.85-6.65,13.85-14.78V293.56a73.81,73.81,0,0,0,33.51-62.07c0-32.52-21.13-60.6-48.82-71.68m-63.38-8.13a36.43,36.43,0,0,1-.73-8.87,34.25,34.25,0,1,1,68.49,0,34.85,34.85,0,0,1-10.93,25.13Z"/></svg>