<svg xmlns="http://www.w3.org/2000/svg" viewBox="0 0 788 376"><defs><style>.cls-1{fill:#fff;}.cls-2{fill:#107c10;}</style></defs><g id="Layer_3" data-name="Layer 3"><rect class="cls-1" width="788" height="376"/></g><g id="Layer_1" data-name="Layer 1"><path class="cls-2" d="M317,131.84v33.08a46.19,46.19,0,0,0,46.2,46.19c.75,0,1.5,0,2.25-.05a53.75,53.75,0,0,0,9.69,18.43L357.2,247.42a5.78,5.78,0,1,0,8.17,8.17l17.94-17.93a53.9,53.9,0,0,0,87.69-42V155.27a13.47,13.47,0,0,0-13.47-13.47H417.11a54.31,54.31,0,0,0-13,1.58,46.19,46.19,0,0,0-40.88-24.66H330.12A13.12,13.12,0,0,0,317,131.84Zm74.54,97.59,31.54-31.52a5.77,5.77,0,1,0-8.16-8.17l-31.55,31.53a42.34,42.34,0,0,1,33.74-67.92h40.42a1.92,1.92,0,0,1,1.92,1.92v40.42a42.34,42.34,0,0,1-67.91,33.74ZM363.2,130.27a34.63,34.63,0,0,1,29.91,17.15,54.24,54.24,0,0,0-20.86,18.4l-14.61-14.61a5.77,5.77,0,0,0-8.17,8.16L366.7,176.6a53.76,53.76,0,0,0-3.48,19.09c0,1.3,0,2.59.14,3.87h-.16a34.64,34.64,0,0,1-34.65-34.64V131.84a1.57,1.57,0,0,1,1.57-1.57Z"/></g></svg>