<?xml version="1.0" encoding="utf-8"?>
<!-- Generator: Adobe Illustrator 23.1.1, SVG Export Plug-In . SVG Version: 6.00 Build 0)  -->
<svg version="1.1" id="Layer_1" xmlns="http://www.w3.org/2000/svg" xmlns:xlink="http://www.w3.org/1999/xlink" x="0px" y="0px"
	 viewBox="0 0 788 444" style="enable-background:new 0 0 788 444;" xml:space="preserve">
<style type="text/css">
	.st0{fill:#E6E6E6;}
	.st1{fill:#505150;}
</style>
<rect class="st0" width="788" height="444"/>
<path class="st1" d="M381.3,340.2v-6.9h6.9v6.9H381.3z M350.9,340.2v-6.9h6.9v6.9H350.9z M320.5,340.2v-6.9h6.9v6.9H320.5z
	 M476,340.2c-8.8,0-17.2-1.7-25-5c-7.8-3.3-14.7-8-20.4-13.8c-5.8-5.9-10.4-12.8-13.8-20.5c-3.3-7.7-5-16.1-5.1-25
	c0-8.8,1.7-17.2,5-24.9c3.3-7.8,8-14.7,13.8-20.4c5.9-5.8,12.7-10.4,20.5-13.8c7.7-3.3,16.1-5.1,25-5.1c8.8,0,17.2,1.7,24.9,5
	c7.8,3.3,14.7,8,20.4,13.8c5.8,5.9,10.4,12.7,13.8,20.5c3.3,7.7,5,16.1,5.1,25c0,8.8-1.7,17.2-5,24.9c-3.3,7.8-8,14.7-13.8,20.4
	c-5.9,5.8-12.8,10.4-20.5,13.8C493.3,338.4,484.9,340.1,476,340.2z M476,218.5c-7.9,0-15.4,1.5-22.3,4.5c-6.9,3-13,7.1-18.2,12.3
	c-5.2,5.2-9.3,11.3-12.3,18.2c-3,6.9-4.5,14.4-4.6,22.4c0,7.9,1.5,15.5,4.5,22.4c3,6.9,7.1,13,12.3,18.2c5.2,5.2,11.3,9.3,18.2,12.3
	c6.9,3,14.4,4.5,22.4,4.6h0c7.9,0,15.5-1.5,22.4-4.5c6.9-3,13-7.1,18.2-12.3c5.2-5.2,9.3-11.3,12.3-18.2c3-6.9,4.5-14.4,4.6-22.4
	c0-7.9-1.5-15.4-4.5-22.4c-3-6.9-7.1-13-12.3-18.2c-5.2-5.2-11.3-9.3-18.2-12.3C491.5,220.2,484,218.6,476,218.5L476,218.5z
	 M305.3,325V318h6.9v6.9H305.3z M305.3,294.6v-6.9h6.9v6.9H305.3z M472.5,279.3V242h6.9v30.4h22.8v6.9H472.5z M305.3,264.1v-6.9h6.9
	v6.9H305.3z M305.3,233.7v-6.9h6.9v6.9H305.3z M305.3,203.3v-6.9h6.9v6.9H305.3z M472.5,188.1v-6.9h6.9v6.9H472.5z M305.3,172.9V166
	h6.9v6.9H305.3z M472.5,157.7v-6.9h6.9v6.9H472.5z M305.3,142.5v-6.9h6.9v6.9H305.3z M472.5,127.3v-6.9h6.9v6.9H472.5z M457.3,112.1
	v-6.9h6.9v6.9H457.3z M426.9,112.1v-6.9h6.9v6.9H426.9z M396.5,112.1v-6.9h6.9v6.9H396.5z M366.1,112.1v-6.9h6.9v6.9H366.1z
	 M335.7,112.1v-6.9h6.9v6.9H335.7z M305.3,112.1v-6.9h6.9v6.9H305.3z"/>
</svg>
