<svg xmlns="http://www.w3.org/2000/svg" viewBox="0 0 788 376"><defs><style>.cls-1{fill:#fff;}.cls-2{fill:#107c10;}</style></defs><g id="Layer_3" data-name="Layer 3"><rect class="cls-1" width="788" height="376"/></g><g id="Layer_4" data-name="Layer 4"><path class="cls-2" d="M499,234.32l-57.65,57.75-27.84-27.94,9.31-9.32,18.53,18.42L489.69,225Zm-133.82.93a54.91,54.91,0,0,1,12.31,8.38,52.75,52.75,0,0,1,9.32,11.08,55,55,0,0,1,6,13.24,50.21,50.21,0,0,1,2.17,14.7H381.74a38.73,38.73,0,0,0-3.11-15.42,39.89,39.89,0,0,0-8.49-12.63A41,41,0,0,0,357.41,246a36.89,36.89,0,0,0-15.42-3.1,38.24,38.24,0,0,0-15.42,3.1,41.52,41.52,0,0,0-12.63,8.49,39.59,39.59,0,0,0-11.69,28.15H289a52.58,52.58,0,0,1,2.07-14.7,50.07,50.07,0,0,1,6-13.24,54.92,54.92,0,0,1,21.74-19.46,39.29,39.29,0,0,1-12.11-14,39.72,39.72,0,0,1-4.45-18.12,38.73,38.73,0,0,1,3.1-15.42,39.73,39.73,0,0,1,8.49-12.62,41.19,41.19,0,0,1,12.63-8.59A36.7,36.7,0,0,1,342,163.42,38.94,38.94,0,0,1,374.08,180a54,54,0,0,1,24.22-24.22,39.11,39.11,0,0,1-12.11-14,39.58,39.58,0,0,1-4.45-18.11,38.73,38.73,0,0,1,3.1-15.42,39.89,39.89,0,0,1,8.49-12.63A41.32,41.32,0,0,1,406,87a36.74,36.74,0,0,1,15.53-3.11A38.73,38.73,0,0,1,436.9,87a39.89,39.89,0,0,1,12.63,8.49,40.87,40.87,0,0,1,8.59,12.73,36.83,36.83,0,0,1,3.1,15.42,38.83,38.83,0,0,1-16.56,32.08A54.46,54.46,0,0,1,457,164.15a52.34,52.34,0,0,1,9.31,11.07,54.69,54.69,0,0,1,6,13.25,50.15,50.15,0,0,1,2.17,14.69H461.22a38.73,38.73,0,0,0-3.1-15.42,39.73,39.73,0,0,0-8.49-12.62,40.82,40.82,0,0,0-12.73-8.59,36.9,36.9,0,0,0-15.42-3.11,38.25,38.25,0,0,0-15.42,3.11A41.49,41.49,0,0,0,393.43,175a38.72,38.72,0,0,0-8.59,12.73,39.22,39.22,0,0,0-3.1,15.42,38.9,38.9,0,0,1-16.56,32.09ZM395,123.68a25.4,25.4,0,0,0,2.07,10.24,28,28,0,0,0,5.7,8.49,24.78,24.78,0,0,0,8.38,5.69,28.25,28.25,0,0,0,10.35,2.07,25.44,25.44,0,0,0,10.25-2.07,28.09,28.09,0,0,0,8.48-5.69A24.64,24.64,0,0,0,445.9,134,27.92,27.92,0,0,0,448,123.68a25.41,25.41,0,0,0-2.07-10.25,28.26,28.26,0,0,0-5.69-8.49,24.78,24.78,0,0,0-8.38-5.69,28.25,28.25,0,0,0-10.35-2.07,25.44,25.44,0,0,0-10.25,2.07,28.27,28.27,0,0,0-8.48,5.69,24.7,24.7,0,0,0-5.7,8.39A28.25,28.25,0,0,0,395,123.68ZM315.5,203.16a25.41,25.41,0,0,0,2.07,10.25,28.26,28.26,0,0,0,5.69,8.49,24.78,24.78,0,0,0,8.38,5.69A28.33,28.33,0,0,0,342,229.66a25.44,25.44,0,0,0,10.25-2.07,28.27,28.27,0,0,0,8.48-5.69,24.7,24.7,0,0,0,5.7-8.39,28.25,28.25,0,0,0,2.07-10.35,25.4,25.4,0,0,0-2.07-10.24,28,28,0,0,0-5.7-8.49,24.68,24.68,0,0,0-8.38-5.69A28.25,28.25,0,0,0,342,176.67a25.36,25.36,0,0,0-10.24,2.07,28.19,28.19,0,0,0-8.49,5.69,24.73,24.73,0,0,0-5.69,8.38A27.92,27.92,0,0,0,315.5,203.16Z"/></g></svg>