<svg id="Layer_1" data-name="Layer 1" xmlns="http://www.w3.org/2000/svg" viewBox="0 0 788 444"><defs><style>.cls-1{fill:#e6e6e6;}.cls-2{fill:#505150;}</style></defs><title>FE-Safety_Content-Placement-0_Screen-Time_788x444_02</title><rect class="cls-1" width="788" height="444"/><path class="cls-2" d="M393.68,340.17A118.31,118.31,0,0,1,362.33,336a116.36,116.36,0,0,1-28.2-11.86,118.81,118.81,0,0,1-23.85-18.43,117.53,117.53,0,0,1-18.42-23.95,117.83,117.83,0,0,1-16.13-59.57,118.22,118.22,0,0,1,4.15-31.3,116.73,116.73,0,0,1,11.85-28.2,119.55,119.55,0,0,1,18.43-23.85,117.81,117.81,0,0,1,23.95-18.42,117.91,117.91,0,0,1,59.58-16.13A116.06,116.06,0,0,1,425,108.58a121.18,121.18,0,0,1,28.59,12.1,115.22,115.22,0,0,1,24.39,19.22,121.88,121.88,0,0,1,18.91,25.48l7.75,13.91V134.84h7v52.75H458.83v-7h37.83l-2.83-5.92a111.14,111.14,0,0,0-17.34-26.13,114.23,114.23,0,0,0-23.5-20,106.73,106.73,0,0,0-28.27-12.78,115.76,115.76,0,0,0-31-4.45,108.83,108.83,0,0,0-29.4,4,114.53,114.53,0,0,0-26.47,11.13,107.66,107.66,0,0,0-22.56,17.48A115.9,115.9,0,0,0,298,166.26a112.51,112.51,0,0,0-11.27,26.48,105.2,105.2,0,0,0-4,29.54,108.77,108.77,0,0,0,4,29.34,114.71,114.71,0,0,0,11.13,26.47,108.51,108.51,0,0,0,17.48,22.56A116.24,116.24,0,0,0,337.67,318a112.51,112.51,0,0,0,26.48,11.27,104.69,104.69,0,0,0,28.65,4h.89A109.93,109.93,0,0,0,460.8,310.4a116.5,116.5,0,0,0,24.35-25.59,107.44,107.44,0,0,0,14.19-29l6.71,1.85a113.66,113.66,0,0,1-15,31,117.67,117.67,0,0,1-26,27.29,123.61,123.61,0,0,1-33.34,17.88,111.34,111.34,0,0,1-37.36,6.32ZM382.54,231.38v-66h7v63l41.79,41.91-4.88,4.88Z"/></svg>