<svg id="Layer_1" data-name="Layer 1" xmlns="http://www.w3.org/2000/svg" viewBox="0 0 788 444"><defs><style>.cls-1{fill:#e6e6e6;}.cls-2{fill:#505150;}</style></defs><title>FE-Safety_Content-Placement-0_View-Reports_788x444_02</title><rect class="cls-1" width="788" height="444"/><path class="cls-2" d="M301,340.17a25,25,0,0,1-10-2,28.51,28.51,0,0,1-8.42-5.65,24,24,0,0,1-5.52-8.13,28.1,28.1,0,0,1-2-10.28,24.68,24.68,0,0,1,2-9.9,28.13,28.13,0,0,1,5.65-8.42,24,24,0,0,1,8.12-5.52,28.15,28.15,0,0,1,10.28-2l4.59-.09V130.3a24.9,24.9,0,0,1,2-10,27.88,27.88,0,0,1,5.65-8.42,24.11,24.11,0,0,1,8.13-5.53,28.26,28.26,0,0,1,10.27-2H485a24.89,24.89,0,0,1,10,2,28,28,0,0,1,8.43,5.65,24.19,24.19,0,0,1,5.52,8.13,28.3,28.3,0,0,1,2,10.27,24.78,24.78,0,0,1-2,9.9,27.88,27.88,0,0,1-5.65,8.42,24.21,24.21,0,0,1-8.13,5.53,28.3,28.3,0,0,1-10.27,2H464.94V314.2a24.73,24.73,0,0,1-2,10,28.28,28.28,0,0,1-5.64,8.42,24.14,24.14,0,0,1-8.13,5.52,28.14,28.14,0,0,1-10.24,2ZM424.72,300a18.68,18.68,0,0,0-4.26,6.65A23.57,23.57,0,0,0,419,314v.19a19.6,19.6,0,0,0,1.59,7.85,20.11,20.11,0,0,0,4.22,6.24,21.34,21.34,0,0,0,6.26,4.29,17.62,17.62,0,0,0,7.42,1.64h.61a19.68,19.68,0,0,0,7.76-1.59,20,20,0,0,0,6.23-4.22,21.17,21.17,0,0,0,4.3-6.26,17.56,17.56,0,0,0,1.62-8V130.3a25.77,25.77,0,0,1,3.47-13l4-7H331.69a19.43,19.43,0,0,0-7.85,1.59,19.92,19.92,0,0,0-6.23,4.21,21.35,21.35,0,0,0-4.3,6.27,17.56,17.56,0,0,0-1.62,8V288.23H439a3,3,0,0,1,0,6,21.4,21.4,0,0,0-7.51,1.37A17.9,17.9,0,0,0,424.72,300ZM281,314.29a19.5,19.5,0,0,0,1.58,7.76,20.11,20.11,0,0,0,4.22,6.24,21.53,21.53,0,0,0,6.26,4.29,17.62,17.62,0,0,0,7.42,1.64h119.9l-4-7a26.23,26.23,0,0,1,0-26l4-7H301a19.59,19.59,0,0,0-7.85,1.58A20,20,0,0,0,287,300a21.17,21.17,0,0,0-4.3,6.26A17.63,17.63,0,0,0,281,314.29Zm183.9-164h20a19.59,19.59,0,0,0,7.85-1.58A20.18,20.18,0,0,0,499,144.5a21.41,21.41,0,0,0,4.3-6.27,17.69,17.69,0,0,0,1.62-8,19.58,19.58,0,0,0-1.58-7.77,20.18,20.18,0,0,0-4.22-6.23,21.54,21.54,0,0,0-6.27-4.3,17.72,17.72,0,0,0-7.41-1.63h-.61a19.59,19.59,0,0,0-7.77,1.59,20.15,20.15,0,0,0-6.23,4.21,21.39,21.39,0,0,0-4.29,6.27,17.7,17.7,0,0,0-1.63,8ZM336.37,248.22v-6h97.92v6Zm0-30.65v-6h97.92v6Zm0-30.65v-6h97.92v6Zm0-30.65v-6h97.92v6Z"/></svg>