<svg id="Layer_1" data-name="Layer 1" xmlns="http://www.w3.org/2000/svg" viewBox="0 0 788 444"><defs><style>.cls-1{fill:#e6e6e6;}.cls-2{fill:#505150;}</style></defs><title>FE-Safety_Content-Placement-0_Screen-Time-Habits_788x444_02</title><rect class="cls-1" width="788" height="444"/><path class="cls-2" d="M284.54,340.17v-6.12h17.64V328.3a93,93,0,0,1,3.89-26.73,87.78,87.78,0,0,1,11.77-24.43,86.46,86.46,0,0,1,8.53-10.74,109.24,109.24,0,0,1,9.29-8.77,62.37,62.37,0,0,1,10.22-6.93c3.94-2.16,8.18-4.39,12.59-6.64a26.37,26.37,0,0,0,10.09-8.24,23.57,23.57,0,0,0,.16-26.48A26.48,26.48,0,0,0,358.4,201a130.77,130.77,0,0,1-12.16-6.47,104.48,104.48,0,0,1-10.57-7.31,80.55,80.55,0,0,1-9.39-8.75,93.19,93.19,0,0,1-8.43-10.64,87.6,87.6,0,0,1-11.64-24.31,96.35,96.35,0,0,1-4-26.91l-.05-5.71H284.54v-6.12H502.26v6.12H484.63v5.76a92.92,92.92,0,0,1-3.89,26.72A87.84,87.84,0,0,1,469,167.86a98.83,98.83,0,0,1-8.45,10.66,80.1,80.1,0,0,1-9.24,8.6,110.61,110.61,0,0,1-10.74,7.47A116.51,116.51,0,0,1,428.47,201a25.63,25.63,0,0,0-10.25,8.19,22.87,22.87,0,0,0-4.12,13.16v.14a21.94,21.94,0,0,0,4,13.15A26.53,26.53,0,0,0,428.41,244a130.77,130.77,0,0,1,12.16,6.47,103.49,103.49,0,0,1,10.57,7.31,82.21,82.21,0,0,1,9.39,8.74A94.19,94.19,0,0,1,469,277.13a88,88,0,0,1,11.64,24.3,96.85,96.85,0,0,1,4,26.92l.05,5.7h17.58v6.12Zm59.88-81.41a80.52,80.52,0,0,0-15.16,13.56A88,88,0,0,0,317.91,289a81.43,81.43,0,0,0-7.11,19,93.17,93.17,0,0,0-2.5,20.27l-.08,5.83H478.51V328.3a87.47,87.47,0,0,0-2.36-20.21,81.57,81.57,0,0,0-7.12-19,87.65,87.65,0,0,0-11.35-16.66,83.22,83.22,0,0,0-15.34-13.74,53.13,53.13,0,0,0-8.14-4.9c-2.44-1.18-5-2.45-7.57-3.79l-.13-.06a35.86,35.86,0,0,1-13.68-11.26,29.57,29.57,0,0,1,0-32.42A35.69,35.69,0,0,1,426.5,195l7.7-3.71a47.38,47.38,0,0,0,8.19-5.08,81.12,81.12,0,0,0,15.15-13.56A88,88,0,0,0,468.89,156a81.91,81.91,0,0,0,7.12-19,93.17,93.17,0,0,0,2.5-20.27l.08-5.84H308.3v5.76a86.93,86.93,0,0,0,2.36,20.21,81.88,81.88,0,0,0,7.11,19,88,88,0,0,0,11.35,16.66,83.13,83.13,0,0,0,15.34,13.73,52.5,52.5,0,0,0,8.15,4.91c2.42,1.16,5,2.44,7.56,3.78l.13.07A35.54,35.54,0,0,1,374,206.29a29.51,29.51,0,0,1,0,32.42A35.72,35.72,0,0,1,360.3,250l-7.69,3.71A47,47,0,0,0,344.42,258.76Z"/></svg>