<svg xmlns="http://www.w3.org/2000/svg" viewBox="0 0 788 376"><defs><style>.cls-1{fill:#fff;}.cls-2{fill:#107c10;}</style></defs><g id="Layer_3" data-name="Layer 3"><rect class="cls-1" width="788" height="376"/></g><g id="Layer_2" data-name="Layer 2"><path class="cls-2" d="M369.41,225.34H386v13.74H372.12a4.69,4.69,0,0,1-4.34-2.62c-.36-.67-1-1.81-1.89-3.44L363.08,228c-1-1.75-1.84-3.41-2.62-5a9.46,9.46,0,0,1-1.17-3.17,8.51,8.51,0,0,1,.63-3.07,19.83,19.83,0,0,1,1.63-3.26c.66-1.08,1.29-2.11,1.89-3.07s1.15-1.81,1.63-2.53l-5.78-4.61h17.8l4.25,17.54-7-5.52Zm9.94-46.11a5.15,5.15,0,0,1,1.72-2,5.23,5.23,0,0,1,2.62-.81h20a4.64,4.64,0,0,1,4.34,2.71l4.88,9.13,5.25-4L415.43,203l-19.71-1.81,5.6-4.16L393,180.86l-7.6,14.91L373.93,190Zm33.36,36.07,11-6.51c.24.54.64,1.3,1.18,2.26s1.11,2,1.72,3.17a27.9,27.9,0,0,1,1.44,3.16,9.75,9.75,0,0,1,.63,2.44,4.83,4.83,0,0,1-.54,2.17l-7.68,15.19a4.27,4.27,0,0,1-1.81,1.9,6.15,6.15,0,0,1-2.53.72H404v6.06l-11.21-15L404,217.11v9.31h14.74ZM394,95.43q7,0,14.1.54t14.11,1.54q4.07.63,9.49,1.81t11.39,3a93.83,93.83,0,0,1,11.57,4.34,51.71,51.71,0,0,1,10.22,6.06,30.67,30.67,0,0,1,7.32,7.77,18.15,18.15,0,0,1,2.8,9.67,12.11,12.11,0,0,1-.27,2.71c-.18.79-.39,1.69-.63,2.72L445.62,262.76a94,94,0,0,1-24.23,13.29,84.43,84.43,0,0,1-54.51,0,92.09,92.09,0,0,1-24.23-13.29L313.81,135.3l-.54-2.54a12.45,12.45,0,0,1-.27-2.62,17.43,17.43,0,0,1,2.8-9.67,30.82,30.82,0,0,1,7.32-7.77,51.37,51.37,0,0,1,10.22-6,115.19,115.19,0,0,1,11.57-4.43,100.55,100.55,0,0,1,11.3-3q5.43-1.09,9.58-1.81,7.06-1,14.11-1.54T394,95.43Zm64.64,56.23a79.74,79.74,0,0,1-14.74,6.24A134.57,134.57,0,0,1,427.27,162a165.65,165.65,0,0,1-17.09,2.17q-8.49.65-16.18.73t-16.09-.64a147.73,147.73,0,0,1-17-2.26,168.08,168.08,0,0,1-16.63-4.06,71.74,71.74,0,0,1-14.83-6.24L353,256a67.82,67.82,0,0,0,19.61,9.49,77.29,77.29,0,0,0,21.61,3.26,73.85,73.85,0,0,0,21.43-3.17A67.77,67.77,0,0,0,435.22,256ZM394,153.29c3,0,6.36-.09,10-.28s7.54-.51,11.58-1,8-1.08,12-1.81a98.73,98.73,0,0,0,11.75-2.89A82.86,82.86,0,0,0,450,143.25a42.37,42.37,0,0,0,8.68-5.42,21.33,21.33,0,0,0,3.16-3.35,7.38,7.38,0,0,0,1.63-4.34,6.94,6.94,0,0,0-1.54-4.34,19.15,19.15,0,0,0-3.25-3.34,42,42,0,0,0-8.59-5.43A71.76,71.76,0,0,0,439.38,113a111.57,111.57,0,0,0-11.75-2.81q-6-1.08-12-1.89a113.1,113.1,0,0,0-11.49-1c-3.61-.12-7-.21-10.12-.27s-6.45.09-10.12.27-7.51.51-11.49,1-8,1.08-12,1.8a93.35,93.35,0,0,0-11.75,2.9A90.42,90.42,0,0,0,338,117a39.39,39.39,0,0,0-8.68,5.43,21.23,21.23,0,0,0-3.16,3.34,7.43,7.43,0,0,0-1.63,4.34,6.9,6.9,0,0,0,1.54,4.34,19.23,19.23,0,0,0,3.25,3.35,41.94,41.94,0,0,0,8.59,5.42,71.77,71.77,0,0,0,10.67,4.07,111.53,111.53,0,0,0,11.75,2.8q6,1.08,12,1.9t11.49,1C387.49,153.14,390.87,153.23,394,153.29Z"/></g></svg>