<svg id="Layer_1" data-name="Layer 1" xmlns="http://www.w3.org/2000/svg" viewBox="0 0 788 444"><defs><style>.cls-1{fill:#e6e6e6;}.cls-2{fill:none;stroke:#515151;stroke-miterlimit:8;stroke-width:6.5px;}</style></defs><title>FE-Safety_Content-Placement-0_Child-Safety-Settings_788x444_02</title><rect class="cls-1" width="788" height="444"/><path class="cls-2" d="M218.43,121.35s-12.18-25.54-33.82-8.28c-18.26,15.19,7.44,42.8,4.73,58-4.73,20.71-41.93,12.43-41.93,12.43M194.08,198s19.61-13.8,24.35-28.3c8.11-26.92-4.06-44.86-4.06-44.86m4.06-3.46s16.9,26.23,40.58,33.14c27.73,7.59,70.34,3.45,70.34,3.45M223.16,258.72l38.55,36.58,37.88-36.58m50.05,81.45c0-49.7-39.23-90.42-87.93-90.42s-88.6,40.72-88.6,90.42M191.37,178c0-39.35,31.11-71.79,70.34-71.79,38.55,0,70.34,32.44,70.34,71.79,0,40-31.79,71.79-70.34,71.79C222.48,249.75,191.37,218,191.37,178Z"/><path class="cls-2" d="M487.33,258.72,526.1,295.3l38.08-36.58m50.34,81.45c0-49.7-39.45-90.42-88.42-90.42S437,290.47,437,340.17M455.36,178c0-39.35,31.29-71.79,70.74-71.79,38.77,0,70.73,32.44,70.73,71.79,0,40-32,71.79-70.73,71.79C486.65,249.75,455.36,218,455.36,178Z"/></svg>